<svg xmlns="http://www.w3.org/2000/svg" width="256" height="256" viewBox="0 0 100 100"><rect width="100" height="100" rx="20" fill="#000000"></rect><path d="M34.61 75.02L11.66 51.26L11.66 77.27Q11.12 77.45 10.22 77.67Q9.32 77.90 8.24 77.90L8.24 77.90Q4.28 77.90 4.28 74.57L4.28 74.57L4.28 22.82Q4.73 22.64 5.68 22.41Q6.62 22.19 7.70 22.19L7.70 22.19Q11.66 22.19 11.66 25.52L11.66 25.52L11.66 47.93L36.41 22.28Q38.75 22.37 39.92 23.45Q41.09 24.53 41.09 25.97L41.09 25.97Q41.09 27.14 40.46 28.13Q39.83 29.12 38.66 30.29L38.66 30.29L19.22 49.37Q27.41 57.38 33.40 63.63Q39.38 69.89 43.70 73.76L43.70 73.76Q43.52 75.74 42.49 76.86Q41.45 77.99 39.83 77.99L39.83 77.99Q38.30 77.99 37.09 77.14Q35.87 76.28 34.61 75.02L34.61 75.02ZM95.18 28.67L95.18 28.67Q95.18 29.93 94.42 30.83Q93.65 31.73 92.66 32.18L92.66 32.18Q90.32 30.56 87.17 29.12Q84.02 27.68 78.98 27.68L78.98 27.68Q74.84 27.68 71.33 29.12Q67.82 30.56 65.21 33.35Q62.60 36.14 61.12 40.37Q59.63 44.60 59.63 50.09L59.63 50.09Q59.63 55.67 61.07 59.81Q62.51 63.95 65.08 66.74Q67.64 69.53 71.24 70.92Q74.84 72.32 79.25 72.32L79.25 72.32Q83.93 72.32 87.40 71.02Q90.86 69.71 93.20 67.91L93.20 67.91Q94.10 68.27 94.91 69.22Q95.72 70.16 95.72 71.42L95.72 71.42Q95.72 73.31 93.56 74.84L93.56 74.84Q91.49 76.28 87.89 77.41Q84.29 78.53 78.71 78.53L78.71 78.53Q73.04 78.53 68.18 76.73Q63.32 74.93 59.77 71.38Q56.21 67.82 54.14 62.51Q52.07 57.20 52.07 50.09L52.07 50.09Q52.07 42.98 54.19 37.63Q56.30 32.27 59.90 28.67Q63.50 25.07 68.32 23.27Q73.13 21.47 78.44 21.47L78.44 21.47Q82.13 21.47 85.24 22.10Q88.34 22.73 90.55 23.77Q92.75 24.80 93.97 26.11Q95.18 27.41 95.18 28.67Z" fill="#fff"></path></svg>